<mxfile host="65bd71144e" modified="2020-12-16T05:59:39.906Z" agent="5.0 (Windows NT 10.0; Win64; x64) AppleWebKit/537.36 (KHTML, like Gecko) Code/1.52.0 Chrome/83.0.4103.122 Electron/9.3.5 Safari/537.36" version="13.10.0" etag="vfL9al0pMvlz47JTT_67" type="embed">
    <diagram id="-2iTx4Ca7q2gm5Swqat_" name="Page-1">
        <mxGraphModel dx="1173" dy="790" grid="1" gridSize="10" guides="1" tooltips="1" connect="1" arrows="1" fold="1" page="1" pageScale="1" pageWidth="850" pageHeight="1400" math="0" shadow="0">
            <root>
                <mxCell id="0"/>
                <mxCell id="1" parent="0"/>
                <mxCell id="2" value="&lt;div style=&quot;text-align: center&quot;&gt;&lt;span&gt;&lt;b&gt;Probem Domain:&amp;nbsp;&lt;/b&gt;&lt;/span&gt;&lt;/div&gt;&lt;div style=&quot;text-align: center&quot;&gt;Write a function called &lt;i&gt;BinarySearch &lt;/i&gt;which takes in 2 parameters: a sorted and the search key. Wiithout utulicing an of the built-in methods available in Python, return the index od the array's element that is equal to the search key, or -1 if the element does not exist&lt;/div&gt;" style="whiteSpace=wrap;html=1;textDirection=ltr;align=left;" vertex="1" parent="1">
                    <mxGeometry x="40" y="40" width="280" height="110" as="geometry"/>
                </mxCell>
                <mxCell id="4" value="Input: [4,8,15,16,23,42], 15&lt;br&gt;&amp;nbsp; &amp;nbsp; &amp;nbsp; &amp;nbsp; &amp;nbsp; &amp;nbsp; &amp;nbsp; &amp;nbsp; &amp;nbsp; &amp;nbsp;^&lt;br&gt;&amp;nbsp; &amp;nbsp; &amp;nbsp; &amp;nbsp; &amp;nbsp; &amp;nbsp; &amp;nbsp; &amp;nbsp;Index 2&lt;br&gt;&lt;br&gt;Output: 2&lt;br&gt;" style="text;html=1;align=left;verticalAlign=middle;resizable=0;points=[];autosize=1;rotation=0;" vertex="1" parent="1">
                    <mxGeometry x="50" y="190" width="160" height="80" as="geometry"/>
                </mxCell>
                <mxCell id="5" value="&lt;font style=&quot;font-size: 14px&quot;&gt;&lt;b&gt;Big O&lt;/b&gt;&lt;br&gt;&lt;br&gt;time --&amp;gt; O(n)&lt;br&gt;space --&amp;gt; O(n)&lt;br&gt;&lt;/font&gt;" style="text;html=1;strokeColor=none;fillColor=none;align=left;verticalAlign=middle;whiteSpace=wrap;rounded=0;" vertex="1" parent="1">
                    <mxGeometry x="50" y="300" width="140" height="70" as="geometry"/>
                </mxCell>
            </root>
        </mxGraphModel>
    </diagram>
</mxfile>